<svg xmlns="http://www.w3.org/2000/svg" viewBox="0 0 16 16" width="16" height="16" shape-rendering="crispEdges"><path fill="#17151B" d="M3 0h1v1h-1zM0 1h1v1h-1zM2 1h1v1h-1zM11 1h1v1h-1zM14 1h1v1h-1zM2 2h2v1h-2zM6 2h2v1h-2zM15 4h1v1h-1zM4 5h1v1h-1zM13 5h1v1h-1zM0 8h1v1h-1zM15 8h1v1h-1zM1 9h2v1h-2zM5 10h1v1h-1zM8 12h1v1h-1zM10 12h2v1h-2zM13 12h1v1h-1zM4 13h1v1h-1zM0 14h1v1h-1zM9 14h1v1h-1zM13 14h1v1h-1zM5 15h1v1h-1z"/><path fill="#1F1C24" d="M0 0h3v1h-3zM5 0h10v1h-10zM1 1h1v1h-1zM3 1h3v1h-3zM7 1h1v1h-1zM10 1h1v1h-1zM12 1h2v1h-2zM15 1h1v1h-1zM0 2h2v1h-2zM4 2h2v1h-2zM8 2h5v1h-5zM15 2h1v1h-1zM0 3h3v1h-3zM4 3h1v1h-1zM6 3h7v1h-7zM14 3h2v1h-2zM0 4h2v1h-2zM3 4h1v1h-1zM5 4h3v1h-3zM11 4h1v1h-1zM13 4h2v1h-2zM0 5h2v1h-2zM3 5h1v1h-1zM5 5h1v1h-1zM7 5h4v1h-4zM12 5h1v1h-1zM15 5h1v1h-1zM0 6h2v1h-2zM3 6h12v1h-12zM0 7h1v1h-1zM3 7h1v1h-1zM9 7h7v1h-7zM2 8h2v1h-2zM6 8h3v1h-3zM10 8h2v1h-2zM13 8h1v1h-1zM0 9h1v1h-1zM3 9h6v1h-6zM10 9h2v1h-2zM13 9h3v1h-3zM0 10h5v1h-5zM6 10h4v1h-4zM13 10h3v1h-3zM0 11h3v1h-3zM4 11h9v1h-9zM14 11h1v1h-1zM0 12h2v1h-2zM3 12h1v1h-1zM5 12h3v1h-3zM9 12h1v1h-1zM12 12h1v1h-1zM14 12h2v1h-2zM1 13h3v1h-3zM5 13h11v1h-11zM1 14h7v1h-7zM10 14h3v1h-3zM14 14h1v1h-1zM0 15h4v1h-4zM6 15h7v1h-7zM14 15h2v1h-2z"/><path fill="#282430" d="M4 0h1v1h-1zM15 0h1v1h-1zM6 1h1v1h-1zM14 2h1v1h-1zM3 3h1v1h-1zM5 3h1v1h-1zM2 4h1v1h-1zM4 4h1v1h-1zM10 4h1v1h-1zM12 4h1v1h-1zM2 5h1v1h-1zM6 5h1v1h-1zM11 5h1v1h-1zM14 5h1v1h-1zM2 6h1v1h-1zM15 6h1v1h-1zM4 7h1v1h-1zM1 8h1v1h-1zM4 8h2v1h-2zM12 8h1v1h-1zM14 8h1v1h-1zM12 9h1v1h-1zM10 10h3v1h-3zM3 11h1v1h-1zM13 11h1v1h-1zM15 11h1v1h-1zM2 12h1v1h-1zM4 12h1v1h-1zM0 13h1v1h-1zM8 14h1v1h-1zM15 14h1v1h-1zM4 15h1v1h-1zM13 15h1v1h-1z"/><path fill="#E0B000" d="M8 1h2v1h-2zM13 2h1v1h-1zM13 3h1v1h-1zM8 4h2v1h-2zM1 7h2v1h-2zM5 7h4v1h-4zM9 8h1v1h-1zM9 9h1v1h-1z"/></svg>