<svg xmlns="http://www.w3.org/2000/svg" viewBox="0 0 16 16" width="16" height="16" shape-rendering="crispEdges"><path fill="#4F5847" d="M13 0h1v1h-1zM2 2h1v1h-1zM1 3h1v1h-1zM14 3h2v1h-2zM13 4h1v1h-1zM0 5h1v1h-1zM2 5h1v1h-1zM12 5h1v1h-1zM4 6h1v1h-1zM14 8h2v1h-2zM5 9h2v1h-2zM6 10h1v1h-1zM5 11h1v1h-1zM14 11h1v1h-1zM14 12h1v1h-1zM4 13h1v1h-1zM7 13h2v1h-2zM5 14h1v1h-1zM10 14h2v1h-2zM1 15h1v1h-1zM8 15h1v1h-1z"/><path fill="#5A6350" d="M0 0h4v1h-4zM5 0h5v1h-5zM11 0h2v1h-2zM14 0h2v1h-2zM0 1h1v1h-1zM2 1h7v1h-7zM10 1h1v1h-1zM12 1h1v1h-1zM14 1h2v1h-2zM0 2h2v1h-2zM6 2h6v1h-6zM13 2h1v1h-1zM15 2h1v1h-1zM0 3h1v1h-1zM2 3h1v1h-1zM6 3h1v1h-1zM8 3h2v1h-2zM11 3h3v1h-3zM0 4h3v1h-3zM7 4h2v1h-2zM10 4h3v1h-3zM14 4h2v1h-2zM1 5h1v1h-1zM6 5h1v1h-1zM11 5h1v1h-1zM13 5h3v1h-3zM0 6h2v1h-2zM3 6h1v1h-1zM11 6h5v1h-5zM0 7h5v1h-5zM11 7h1v1h-1zM13 7h2v1h-2zM0 8h5v1h-5zM11 8h3v1h-3zM0 9h1v1h-1zM7 9h3v1h-3zM11 9h2v1h-2zM14 9h1v1h-1zM0 10h1v1h-1zM5 10h1v1h-1zM9 10h7v1h-7zM0 11h1v1h-1zM6 11h1v1h-1zM9 11h5v1h-5zM15 11h1v1h-1zM0 12h1v1h-1zM5 12h2v1h-2zM8 12h6v1h-6zM15 12h1v1h-1zM0 13h1v1h-1zM2 13h2v1h-2zM5 13h1v1h-1zM9 13h1v1h-1zM11 13h5v1h-5zM0 14h5v1h-5zM6 14h4v1h-4zM12 14h1v1h-1zM14 14h2v1h-2zM2 15h6v1h-6zM10 15h6v1h-6z"/><path fill="#666F5B" d="M4 0h1v1h-1zM10 0h1v1h-1zM1 1h1v1h-1zM9 1h1v1h-1zM11 1h1v1h-1zM13 1h1v1h-1zM3 2h3v1h-3zM12 2h1v1h-1zM14 2h1v1h-1zM3 3h3v1h-3zM7 3h1v1h-1zM10 3h1v1h-1zM3 4h4v1h-4zM9 4h1v1h-1zM2 6h1v1h-1zM12 7h1v1h-1zM15 7h1v1h-1zM10 9h1v1h-1zM13 9h1v1h-1zM15 9h1v1h-1zM7 10h2v1h-2zM7 11h2v1h-2zM7 12h1v1h-1zM1 13h1v1h-1zM6 13h1v1h-1zM10 13h1v1h-1zM13 14h1v1h-1zM0 15h1v1h-1zM9 15h1v1h-1z"/><path fill="#8A4738" d="M3 5h3v1h-3zM7 5h4v1h-4zM5 6h6v1h-6zM5 7h6v1h-6zM5 8h6v1h-6zM1 9h4v1h-4zM1 10h4v1h-4zM1 11h4v1h-4zM1 12h4v1h-4z"/></svg>