<svg xmlns="http://www.w3.org/2000/svg" viewBox="0 0 16 16" width="16" height="16" shape-rendering="crispEdges"><path fill="#356FA8" d="M0 1h1v1h-1zM3 1h1v1h-1zM10 1h1v1h-1zM3 2h1v1h-1zM14 2h1v1h-1zM1 5h1v1h-1zM6 5h1v1h-1zM9 5h1v1h-1zM4 7h1v1h-1zM13 7h1v1h-1zM2 9h2v1h-2zM9 9h1v1h-1zM2 10h2v1h-2zM8 10h1v1h-1zM13 10h1v1h-1zM15 11h1v1h-1zM0 12h1v1h-1zM5 12h1v1h-1zM12 13h2v1h-2zM15 13h1v1h-1zM1 14h1v1h-1zM9 14h1v1h-1zM9 15h1v1h-1z"/><path fill="#3A7CBB" d="M8 1h1v1h-1zM8 2h1v1h-1zM1 3h1v1h-1zM0 4h1v1h-1zM14 4h1v1h-1zM11 5h1v1h-1zM15 6h1v1h-1zM0 7h1v1h-1zM5 7h1v1h-1zM8 7h1v1h-1zM6 8h1v1h-1zM9 8h1v1h-1zM12 8h1v1h-1zM14 8h1v1h-1zM10 10h1v1h-1zM14 10h1v1h-1zM0 11h1v1h-1zM8 11h2v1h-2zM8 12h2v1h-2zM0 14h1v1h-1zM13 14h1v1h-1zM1 15h1v1h-1zM4 15h1v1h-1zM15 15h1v1h-1z"/><path fill="#3F86C4" d="M0 0h1v1h-1zM3 0h3v1h-3zM7 0h3v1h-3zM11 0h5v1h-5zM1 1h2v1h-2zM4 1h3v1h-3zM9 1h1v1h-1zM11 1h5v1h-5zM0 2h3v1h-3zM4 2h4v1h-4zM10 2h2v1h-2zM13 2h1v1h-1zM15 2h1v1h-1zM0 3h1v1h-1zM2 3h1v1h-1zM5 3h3v1h-3zM9 3h3v1h-3zM13 3h3v1h-3zM1 4h4v1h-4zM6 4h4v1h-4zM11 4h3v1h-3zM15 4h1v1h-1zM2 5h2v1h-2zM7 5h1v1h-1zM12 5h2v1h-2zM0 6h3v1h-3zM6 6h1v1h-1zM8 6h3v1h-3zM13 6h2v1h-2zM2 7h2v1h-2zM6 7h2v1h-2zM9 7h2v1h-2zM14 7h2v1h-2zM1 8h5v1h-5zM7 8h2v1h-2zM10 8h2v1h-2zM13 8h1v1h-1zM0 9h2v1h-2zM4 9h5v1h-5zM11 9h5v1h-5zM1 10h1v1h-1zM4 10h4v1h-4zM11 10h2v1h-2zM1 11h2v1h-2zM5 11h3v1h-3zM12 11h1v1h-1zM14 11h1v1h-1zM2 12h2v1h-2zM6 12h2v1h-2zM13 12h3v1h-3zM0 13h1v1h-1zM2 13h1v1h-1zM4 13h7v1h-7zM14 13h1v1h-1zM2 14h4v1h-4zM8 14h1v1h-1zM12 14h1v1h-1zM15 14h1v1h-1zM2 15h2v1h-2zM6 15h3v1h-3zM12 15h1v1h-1zM14 15h1v1h-1z"/><path fill="#4891CC" d="M1 0h1v1h-1zM6 0h1v1h-1zM10 0h1v1h-1zM3 3h2v1h-2zM8 3h1v1h-1zM14 5h1v1h-1zM3 6h1v1h-1zM11 6h2v1h-2zM1 7h1v1h-1zM11 7h2v1h-2zM10 9h1v1h-1zM0 10h1v1h-1zM15 10h1v1h-1zM13 11h1v1h-1zM1 13h1v1h-1zM3 13h1v1h-1zM14 14h1v1h-1zM0 15h1v1h-1zM5 15h1v1h-1zM13 15h1v1h-1z"/><path fill="#4E93CF" d="M2 0h1v1h-1zM7 1h1v1h-1zM9 2h1v1h-1zM12 2h1v1h-1zM12 3h1v1h-1zM5 4h1v1h-1zM10 4h1v1h-1zM0 5h1v1h-1zM4 5h2v1h-2zM8 5h1v1h-1zM10 5h1v1h-1zM15 5h1v1h-1zM4 6h2v1h-2zM7 6h1v1h-1zM0 8h1v1h-1zM15 8h1v1h-1zM9 10h1v1h-1zM3 11h2v1h-2zM10 11h2v1h-2zM1 12h1v1h-1zM4 12h1v1h-1zM10 12h3v1h-3zM11 13h1v1h-1zM6 14h2v1h-2zM10 14h2v1h-2zM10 15h2v1h-2z"/></svg>